<?xml version="1.0" encoding="UTF-8" ?>
<!DOCTYPE svg PUBLIC "-//W3C//DTD SVG 1.1//EN" "http://www.w3.org/Graphics/SVG/1.1/DTD/svg11.dtd">
<svg width="512pt" height="512pt" viewBox="0 0 512 512" version="1.1" xmlns="http://www.w3.org/2000/svg">
<g id="#acacacff">
<path fill="#acacac" opacity="1.00" d=" M 231.55 56.88 C 264.64 54.17 298.26 56.88 330.29 65.77 C 364.43 75.11 396.79 91.33 424.13 113.89 C 461.97 144.77 489.72 189.09 496.63 237.82 C 503.24 281.58 492.44 327.26 468.27 364.18 C 447.37 396.53 417.39 422.54 383.46 440.51 C 301.02 484.20 195.71 481.82 115.94 433.09 C 110.33 428.25 106.19 421.57 104.36 414.37 C 102.32 406.13 104.23 397.40 108.17 390.03 C 122.24 362.81 139.99 337.73 155.28 311.22 C 159.73 303.19 164.38 295.14 167.06 286.31 C 167.85 283.24 168.71 279.81 167.39 276.77 C 166.09 274.10 162.71 273.57 160.05 273.82 C 153.10 274.67 146.58 277.42 140.25 280.26 C 121.82 289.13 103.99 299.17 86.19 309.22 C 76.68 314.54 67.20 320.06 57.00 323.98 C 49.39 326.98 40.06 328.06 33.00 323.11 C 26.61 318.51 21.73 311.91 18.30 304.90 C 10.38 271.83 12.25 236.48 23.52 204.39 C 36.03 168.21 59.80 136.42 89.53 112.53 C 129.68 79.94 180.21 61.22 231.55 56.88 M 276.20 93.03 C 264.91 95.04 254.37 101.57 248.05 111.21 C 242.37 119.81 239.40 130.53 241.19 140.80 C 242.91 154.44 251.78 167.02 264.16 173.06 C 273.30 177.58 284.07 178.84 293.94 176.17 C 304.00 173.71 312.73 167.07 318.63 158.65 C 326.21 147.44 327.90 132.48 322.98 119.87 C 316.25 101.42 295.56 89.43 276.20 93.03 M 140.53 119.86 C 130.41 121.90 120.96 127.53 114.77 135.84 C 107.43 145.38 104.37 158.11 106.78 169.92 C 108.75 180.72 115.38 190.40 124.32 196.66 C 134.02 203.35 146.60 205.93 158.08 203.05 C 170.08 200.45 180.57 192.16 186.21 181.31 C 191.78 170.79 192.51 157.87 188.28 146.76 C 184.55 136.75 176.93 128.28 167.33 123.58 C 159.13 119.37 149.55 118.26 140.53 119.86 M 396.46 173.75 C 382.38 176.29 370.06 186.59 364.89 199.90 C 362.02 207.37 361.01 215.64 362.68 223.51 C 364.97 236.35 373.71 247.79 385.38 253.56 C 394.40 258.13 405.08 259.20 414.86 256.73 C 426.94 253.73 437.49 245.15 442.79 233.88 C 446.86 225.60 447.79 216.00 446.08 206.99 C 443.89 196.12 437.19 186.22 427.91 180.14 C 418.81 173.98 407.24 171.63 396.46 173.75 M 384.16 295.04 C 371.61 296.94 360.13 304.68 353.74 315.66 C 348.60 324.51 346.70 335.24 348.73 345.30 C 351.00 356.64 357.95 367.08 367.85 373.17 C 378.18 379.68 391.38 381.50 403.02 377.72 C 414.65 374.27 424.42 365.42 429.32 354.37 C 433.66 344.70 434.10 333.38 430.70 323.35 C 424.50 304.47 403.84 291.69 384.16 295.04 M 215.52 334.72 C 205.95 336.57 196.02 341.23 191.13 350.09 C 186.86 357.72 188.17 367.30 192.51 374.59 C 198.95 385.58 209.77 393.35 221.21 398.52 C 236.97 405.44 255.06 408.32 271.91 403.94 C 280.31 401.58 288.83 396.93 292.88 388.85 C 296.71 381.55 295.48 372.58 291.55 365.59 C 285.18 354.08 273.92 346.18 262.15 340.87 C 247.62 334.56 231.21 331.72 215.52 334.72 Z" />
</g>
<g id="#3c8952ff">
<path fill="#3c096c" opacity="1.00" d=" M 276.20 93.03 C 295.56 89.43 316.25 101.42 322.98 119.87 C 327.90 132.48 326.21 147.44 318.63 158.65 C 312.73 167.07 304.00 173.71 293.94 176.17 C 284.07 178.84 273.30 177.58 264.16 173.06 C 251.78 167.02 242.91 154.44 241.19 140.80 C 239.40 130.53 242.37 119.81 248.05 111.21 C 254.37 101.57 264.91 95.04 276.20 93.03 Z" />
</g>
<g id="#275a37ff">
<path fill="#5a189a" opacity="1.00" d=" M 140.53 119.86 C 149.55 118.26 159.13 119.37 167.33 123.58 C 176.93 128.28 184.55 136.75 188.28 146.76 C 192.51 157.87 191.78 170.79 186.21 181.31 C 180.57 192.16 170.08 200.45 158.08 203.05 C 146.60 205.93 134.02 203.35 124.32 196.66 C 115.38 190.40 108.75 180.72 106.78 169.92 C 104.37 158.11 107.43 145.38 114.77 135.84 C 120.96 127.53 130.41 121.90 140.53 119.86 Z" />
</g>
<g id="#459e5eff">
<path fill="#7b2cbf" opacity="1.00" d=" M 396.46 173.75 C 407.24 171.63 418.81 173.98 427.91 180.14 C 437.19 186.22 443.89 196.12 446.08 206.99 C 447.79 216.00 446.86 225.60 442.79 233.88 C 437.49 245.15 426.94 253.73 414.86 256.73 C 405.08 259.20 394.40 258.13 385.38 253.56 C 373.71 247.79 364.97 236.35 362.68 223.51 C 361.01 215.64 362.02 207.37 364.89 199.90 C 370.06 186.59 382.38 176.29 396.46 173.75 Z" />
</g>
<g id="#4daf69ff">
<path fill="#9d4edd" opacity="1.00" d=" M 384.16 295.04 C 403.84 291.69 424.50 304.47 430.70 323.35 C 434.10 333.38 433.66 344.70 429.32 354.37 C 424.42 365.42 414.65 374.27 403.02 377.72 C 391.38 381.50 378.18 379.68 367.85 373.17 C 357.95 367.08 351.00 356.64 348.73 345.30 C 346.70 335.24 348.60 324.51 353.74 315.66 C 360.13 304.68 371.61 296.94 384.16 295.04 Z" />
</g>
</svg>
